<?xml version="1.0" encoding="UTF-8"?>
<!DOCTYPE svg PUBLIC "-//W3C//DTD SVG 1.1//EN" "http://www.w3.org/Graphics/SVG/1.1/DTD/svg11.dtd">
<svg xmlns="http://www.w3.org/2000/svg" version="1.1" width="512px" height="512px" style="shape-rendering:geometricPrecision; text-rendering:geometricPrecision; image-rendering:optimizeQuality; fill-rule:evenodd; clip-rule:evenodd" xmlns:xlink="http://www.w3.org/1999/xlink">
<g><path style="opacity:0.999" fill="#6a097d" d="M 85.5,15.5 C 208.167,15.3333 330.834,15.5 453.5,16C 458,17.8333 461.167,21 463,25.5C 463.667,178.833 463.667,332.167 463,485.5C 461.167,490 458,493.167 453.5,495C 331.167,495.667 208.833,495.667 86.5,495C 66.3333,489.5 53.5,476.667 48,456.5C 47.3333,322.167 47.3333,187.833 48,53.5C 53.3488,33.6518 65.8488,20.9852 85.5,15.5 Z"/></g>
<g><path style="opacity:1" fill="#fea4af" d="M 90.5,47.5 C 97.5,47.5 104.5,47.5 111.5,47.5C 111.5,164.833 111.5,282.167 111.5,399.5C 100.667,398.964 90.0005,399.964 79.5,402.5C 79.3333,287.833 79.5,173.166 80,58.5C 82.3566,53.6455 85.8566,49.9788 90.5,47.5 Z"/></g>
<g><path style="opacity:1" fill="#bf5fa0" d="M 143.5,47.5 C 239.5,47.5 335.5,47.5 431.5,47.5C 431.5,164.833 431.5,282.167 431.5,399.5C 335.5,399.5 239.5,399.5 143.5,399.5C 143.5,282.167 143.5,164.833 143.5,47.5 Z"/></g>
<g><path style="opacity:1" fill="#6a0a7d" d="M 277.5,71.5 C 300.99,69.1465 319.657,77.3132 333.5,96C 368.249,93.4473 390.082,108.947 399,142.5C 401.59,173.521 388.423,194.354 359.5,205C 354.27,206.546 348.937,207.38 343.5,207.5C 343.667,222.17 343.5,236.837 343,251.5C 341.058,257.776 336.891,261.61 330.5,263C 301.167,263.667 271.833,263.667 242.5,263C 236.798,260.635 233.298,256.469 232,250.5C 231.5,236.171 231.333,221.837 231.5,207.5C 201.253,205.756 182.753,190.089 176,160.5C 173.075,134.851 182.575,115.351 204.5,102C 216.202,95.9989 228.535,93.9989 241.5,96C 250.389,83.2799 262.389,75.1133 277.5,71.5 Z"/></g>
<g><path style="opacity:1" fill="#f0d3d3" d="M 281.5,103.5 C 297.394,102.196 307.56,109.196 312,124.5C 316.709,130.77 322.876,132.936 330.5,131C 347.491,123.883 359.657,128.716 367,145.5C 368.544,163.455 360.377,173.455 342.5,175.5C 338.933,175.589 335.6,174.755 332.5,173C 322.871,171.064 316.038,174.564 312,183.5C 311.5,199.497 311.333,215.497 311.5,231.5C 295.5,231.5 279.5,231.5 263.5,231.5C 263.667,215.497 263.5,199.497 263,183.5C 258.962,174.564 252.129,171.064 242.5,173C 225.987,178.825 214.487,173.658 208,157.5C 205.674,142.316 211.84,132.483 226.5,128C 232.557,126.838 238.223,127.838 243.5,131C 251.496,133.19 257.996,131.023 263,124.5C 265.862,114.478 272.029,107.478 281.5,103.5 Z"/></g>
<g><path style="opacity:1" fill="#6a097d" d="M 194.5,287.5 C 256.168,287.333 317.834,287.5 379.5,288C 391.144,292.798 394.311,300.965 389,312.5C 386.512,316.325 383.012,318.492 378.5,319C 317.167,319.667 255.833,319.667 194.5,319C 184.08,313.496 181.247,305.329 186,294.5C 188.441,291.546 191.275,289.213 194.5,287.5 Z"/></g>
<g><path style="opacity:1" fill="#6a097d" d="M 234.5,335.5 C 269.502,335.333 304.502,335.5 339.5,336C 351.144,340.798 354.311,348.965 349,360.5C 346.512,364.325 343.012,366.492 338.5,367C 303.833,367.667 269.167,367.667 234.5,367C 224.08,361.496 221.247,353.329 226,342.5C 228.441,339.546 231.275,337.213 234.5,335.5 Z"/></g>
<g><path style="opacity:1" fill="#f0d3d3" d="M 90.5,431.5 C 204.167,431.5 317.833,431.5 431.5,431.5C 431.5,442.167 431.5,452.833 431.5,463.5C 317.833,463.667 204.166,463.5 90.5,463C 79.9098,457.564 77.0764,449.397 82,438.5C 84.4412,435.546 87.2745,433.213 90.5,431.5 Z"/></g>
</svg>
